<svg xmlns="http://www.w3.org/2000/svg" viewBox="0 0 14.01 11.02"><path d="M12.36 1.74A2.72 2.72 0 0 0 13.62.21a5.74 5.74 0 0 1-1.82.67A2.81 2.81 0 0 0 9.7.01a2.81 2.81 0 0 0-2 .81 2.64 2.64 0 0 0-.84 2 3 3 0 0 0 .07.64 8.2 8.2 0 0 1-3.3-.86A8.09 8.09 0 0 1 1.01.51a2.66 2.66 0 0 0-.42 1.4 2.64 2.64 0 0 0 .35 1.33 2.81 2.81 0 0 0 .93 1 2.92 2.92 0 0 1-1.3-.35h0a2.64 2.64 0 0 0 .65 1.77 2.84 2.84 0 0 0 1.65 1 3.06 3.06 0 0 1-.76.09 3.74 3.74 0 0 1-.54 0 2.72 2.72 0 0 0 1 1.37 2.86 2.86 0 0 0 1.67.56A5.74 5.74 0 0 1 .7 9.81a6.33 6.33 0 0 1-.69 0 8.16 8.16 0 0 0 4.4 1.2 8.63 8.63 0 0 0 2.87-.47 7.37 7.37 0 0 0 2.3-1.26 8.5 8.5 0 0 0 1.64-1.81 8 8 0 0 0 1-2.14 7.67 7.67 0 0 0 .34-2.23q0-.24 0-.36a5.92 5.92 0 0 0 1.45-1.43 5.86 5.86 0 0 1-1.65.43h0z" fill="#d3d3d3"/></svg>